<mxfile host="app.diagrams.net" modified="2023-10-08T05:21:30.744Z" agent="Mozilla/5.0 (Windows NT 10.0; Win64; x64) AppleWebKit/537.36 (KHTML, like Gecko) Chrome/116.0.0.0 Safari/537.36 OPR/102.0.0.0" etag="x2ydvVBHATSO-g0aL4PQ" version="22.0.4" type="google">
  <diagram name="Page-1" id="SfZ8XEi4UcQB6JEKI6hG">
    <mxGraphModel grid="1" page="1" gridSize="10" guides="1" tooltips="1" connect="1" arrows="1" fold="1" pageScale="1" pageWidth="850" pageHeight="1100" math="0" shadow="0">
      <root>
        <mxCell id="0" />
        <mxCell id="1" parent="0" />
        <mxCell id="0MRVJD8JdLrbek3flp3l-3" style="edgeStyle=orthogonalEdgeStyle;rounded=0;orthogonalLoop=1;jettySize=auto;html=1;entryX=0.5;entryY=0;entryDx=0;entryDy=0;" edge="1" parent="1" source="0MRVJD8JdLrbek3flp3l-1" target="0MRVJD8JdLrbek3flp3l-5">
          <mxGeometry relative="1" as="geometry">
            <mxPoint x="424.37750000000005" y="337.55999999999995" as="targetPoint" />
          </mxGeometry>
        </mxCell>
        <mxCell id="0MRVJD8JdLrbek3flp3l-1" value="nhập vào&amp;nbsp;&lt;br&gt;&amp;nbsp;(float)&lt;br&gt;toan = điểm toán&lt;br&gt;(float) van = điểm văn&lt;br&gt;(float) ngoaiNgu = điểm ngoại ngữ" style="shape=parallelogram;perimeter=parallelogramPerimeter;whiteSpace=wrap;html=1;fixedSize=1;" vertex="1" parent="1">
          <mxGeometry x="312" y="160" width="227" height="100" as="geometry" />
        </mxCell>
        <mxCell id="0MRVJD8JdLrbek3flp3l-8" style="edgeStyle=orthogonalEdgeStyle;rounded=0;orthogonalLoop=1;jettySize=auto;html=1;entryX=0.75;entryY=0;entryDx=0;entryDy=0;" edge="1" parent="1" source="0MRVJD8JdLrbek3flp3l-5" target="0MRVJD8JdLrbek3flp3l-1">
          <mxGeometry relative="1" as="geometry">
            <mxPoint x="510" y="110" as="targetPoint" />
            <Array as="points">
              <mxPoint x="680" y="390" />
              <mxPoint x="680" y="110" />
              <mxPoint x="482" y="110" />
            </Array>
          </mxGeometry>
        </mxCell>
        <mxCell id="0MRVJD8JdLrbek3flp3l-13" style="edgeStyle=orthogonalEdgeStyle;rounded=0;orthogonalLoop=1;jettySize=auto;html=1;" edge="1" parent="1" source="0MRVJD8JdLrbek3flp3l-5">
          <mxGeometry relative="1" as="geometry">
            <mxPoint x="200" y="390" as="targetPoint" />
          </mxGeometry>
        </mxCell>
        <mxCell id="0MRVJD8JdLrbek3flp3l-5" value="kiểm tra&amp;nbsp;&lt;br&gt;0&amp;lt;=toan&amp;lt;= giới hạn điểm&lt;br&gt;0&amp;lt;=ngoaiNgu&amp;lt;= giới hạn điểm &lt;br&gt;0&amp;lt;van&amp;lt;= giới hạn điểm" style="rhombus;whiteSpace=wrap;html=1;" vertex="1" parent="1">
          <mxGeometry x="328" y="310" width="195" height="160" as="geometry" />
        </mxCell>
        <mxCell id="0MRVJD8JdLrbek3flp3l-7" style="edgeStyle=orthogonalEdgeStyle;rounded=0;orthogonalLoop=1;jettySize=auto;html=1;entryX=0.5;entryY=0;entryDx=0;entryDy=0;" edge="1" parent="1" source="0MRVJD8JdLrbek3flp3l-6" target="0MRVJD8JdLrbek3flp3l-1">
          <mxGeometry relative="1" as="geometry" />
        </mxCell>
        <mxCell id="0MRVJD8JdLrbek3flp3l-6" value="bắt đầu" style="ellipse;whiteSpace=wrap;html=1;" vertex="1" parent="1">
          <mxGeometry x="366" y="20" width="120" height="80" as="geometry" />
        </mxCell>
        <mxCell id="0MRVJD8JdLrbek3flp3l-9" value="sai" style="text;html=1;strokeColor=none;fillColor=none;align=center;verticalAlign=middle;whiteSpace=wrap;rounded=0;" vertex="1" parent="1">
          <mxGeometry x="520" y="360" width="60" height="30" as="geometry" />
        </mxCell>
        <mxCell id="0MRVJD8JdLrbek3flp3l-12" value="nhập lại điểm sai" style="rounded=0;whiteSpace=wrap;html=1;" vertex="1" parent="1">
          <mxGeometry x="620" y="360" width="120" height="60" as="geometry" />
        </mxCell>
        <mxCell id="0MRVJD8JdLrbek3flp3l-16" style="edgeStyle=orthogonalEdgeStyle;rounded=0;orthogonalLoop=1;jettySize=auto;html=1;entryX=0.5;entryY=0;entryDx=0;entryDy=0;" edge="1" parent="1" source="0MRVJD8JdLrbek3flp3l-14" target="0MRVJD8JdLrbek3flp3l-15">
          <mxGeometry relative="1" as="geometry" />
        </mxCell>
        <mxCell id="0MRVJD8JdLrbek3flp3l-14" value="tính&amp;nbsp;&lt;br&gt;DTB = ((toan*2) + (van * 2) + ngoaiNgu)/5" style="rounded=0;whiteSpace=wrap;html=1;" vertex="1" parent="1">
          <mxGeometry y="360" width="200" height="60" as="geometry" />
        </mxCell>
        <mxCell id="0MRVJD8JdLrbek3flp3l-18" style="edgeStyle=orthogonalEdgeStyle;rounded=0;orthogonalLoop=1;jettySize=auto;html=1;entryX=0.5;entryY=0;entryDx=0;entryDy=0;" edge="1" parent="1" source="0MRVJD8JdLrbek3flp3l-15" target="0MRVJD8JdLrbek3flp3l-17">
          <mxGeometry relative="1" as="geometry" />
        </mxCell>
        <mxCell id="0MRVJD8JdLrbek3flp3l-15" value="xếp loại&amp;nbsp;&lt;br&gt;DTB &amp;lt; 5.0 :yếu&lt;br&gt;5.0&amp;lt;=DTB&amp;lt; 6.5 : rung bình&lt;br&gt;6.5&amp;lt;= DTB &amp;lt;8.0:&amp;nbsp; khá&lt;br&gt;8.0&amp;lt;=DTB :&amp;nbsp; giỏi&amp;nbsp;" style="rounded=0;whiteSpace=wrap;html=1;" vertex="1" parent="1">
          <mxGeometry x="-15" y="500" width="230" height="90" as="geometry" />
        </mxCell>
        <mxCell id="0MRVJD8JdLrbek3flp3l-17" value="xuất ra&amp;nbsp;&lt;br&gt;DTB và xếp loại" style="shape=parallelogram;perimeter=parallelogramPerimeter;whiteSpace=wrap;html=1;fixedSize=1;" vertex="1" parent="1">
          <mxGeometry x="40" y="680" width="120" height="60" as="geometry" />
        </mxCell>
      </root>
    </mxGraphModel>
  </diagram>
</mxfile>
